<?xml version="1.0" encoding="utf-8"?>
<!-- Generator: Adobe Illustrator 25.1.0, SVG Export Plug-In . SVG Version: 6.00 Build 0)  -->
<svg version="1.1" id="curacao" xmlns="http://www.w3.org/2000/svg" xmlns:xlink="http://www.w3.org/1999/xlink" x="0px" y="0px"
	 viewBox="0 0 560 560" style="enable-background:new 0 0 560 560;" xml:space="preserve">
<style type="text/css">
	.st0{fill:#FFFFFF;}
	.st1{fill:#F8C524;}
	.st2{fill:#F26722;}
	.st3{fill:#D5172F;}
	.st4{fill:#92C039;}
</style>
<g transform="translate(0.000000,477.000000) scale(0.100000,-0.100000)">
	<path class="st0" d="M5270,745c-205-206-526-428-958-663c-516-281-905-436-1210-482c-173-26-281-13-412,52c-148,73-227,186-252,363
		c-13,90,3,229,47,410l26,104l-26,106c-14,59-25,112-25,120c0,24-113,134-150,146C1554,1145,345,1893,92,2274
		c-108,163-114,381-12,509c49,62,169,142,275,183c100,39,323,90,525,119c85,12,160,24,166,25c8,2,4,32-13,92c-90,331-63,540,90,693
		c111,111,260,143,488,104c158-27,544-159,785-269c42-19,80-35,84-35c5,0,12,15,15,33c14,61,67,212,97,271c42,83,94,150,172,223
		c73,69,119,96,199,118c28,7,68,14,87,14c127,3,321-104,499-274c140-134,395-437,515-613l49-72l141,138c236,230,501,382,666,382
		c47,0,144-25,178-47c171-107,296-354,372-730c84-421,110-635,118-988C5608,1343,5532,1006,5270,745z"/>
	<path class="st1" d="M1035,2849c-439-45-765-160-765-270c0-183,615-652,1405-1071c185-98,454-228,460-221c1,2-36,57-82,123
		c-233,330-530,847-729,1268l-88,187l-36-1C1181,2863,1107,2857,1035,2849z"/>
	<path class="st2" d="M1343,3740c-63-27-78-113-48-274c38-198,232-666,423-1016c104-192,237-425,300-525c215-343,462-696,470-671
		c2,6-3,98-12,204c-45,544-37,1234,20,1786c8,79,14,145,12,146c-8,7-354,168-429,198c-114,47-311,111-439,142
		C1521,3758,1395,3763,1343,3740z"/>
	<path class="st3" d="M2977,4065c-119-104-197-443-259-1130c-17-190-17-1196,0-1395c20-230,53-529,60-548c6-15,13-6,32,40
		c40,99,237,509,324,678c184,357,506,894,719,1201c58,83,112,163,121,176c16,24,14,27-70,154c-109,163-177,253-324,429
		c-225,268-421,425-532,425C3021,4095,3001,4087,2977,4065z"/>
	<path class="st4" d="M4847,3635c-80-31-231-162-376-325c-256-289-660-889-938-1395c-144-261-351-663-407-787
		c-77-171-229-554-254-638c-65-220-96-405-82-491c12-70,44-122,86-140c184-77,855,173,1518,565c241,142,354,218,491,328
		c321,257,373,347,432,739c22,148,25,688,5,884c-20,195-71,565-92,671c-59,292-164,535-253,589C4938,3659,4909,3659,4847,3635z"/>
</g>
</svg>
