<?xml version="1.0" standalone="no"?>
<!DOCTYPE svg PUBLIC "-//W3C//DTD SVG 20010904//EN" "http://www.w3.org/TR/2001/REC-SVG-20010904/DTD/svg10.dtd">
<svg version="1.0" xmlns="http://www.w3.org/2000/svg" width="5000.000000pt" height="651.000000pt" viewBox="0 0 5000.000000 651.000000" preserveAspectRatio="xMidYMid meet">
    <g transform="translate(0.000000,651.000000) scale(0.100000,-0.100000)" stroke="none">
        <path fill="rgb(191, 223, 149)" d="M32375 6498 c-36 -13 -82 -61 -101 -105 -21 -48 -21 -6228 0 -6276 41 -96 147 -142 239 -103 18 7 50 33 72 57 l40 44 0 3140 0 3140 -40 44 c-62 67 -131 87 -210 59z"/>
        <path fill="rgb(255, 255, 255)" d="M45210 5130 c0 -407 -2 -740 -5 -740 -3 0 -49 36 -102 79 -144 116 -285 183 -499 237 -103 26 -122 28 -344 28 -228 1 -238 0 -340 -28 -247 -67 -424 -164 -594 -326 -154 -147 -297 -371 -381 -595 -70 -189 -108 -381 -127 -647 -34 -477 90 -978 325 -1316 64 -92 179 -218 272 -297 63 -54 197 -135 323 -197 88 -43 122 -53 240 -74 306 -53 582 -37 837 49 82 27 217 91 247 117 65 54 164 130 170 130 4 0 8 -52 8 -115 l0 -115 480 0 480 0 0 2275 0 2275 -495 0 -495 0 0 -740z m-457 -1207 c115 -38 184 -81 260 -163 153 -165 227 -418 227 -775 0 -270 -32 -434 -121 -621 -34 -72 -57 -103 -123 -169 -126 -125 -263 -179 -456 -179 -306 -1 -530 164 -635 469 -56 164 -85 428 -67 633 27 327 105 528 263 676 121 115 233 154 437 155 118 1 142 -2 215 -26z"/>
        <path fill="rgb(255, 255, 255)" d="M46660 5440 l0 -430 495 0 495 0 0 430 0 430 -495 0 -495 0 0 -430z"/>
        <path fill="rgb(255, 255, 255)" d="M48340 5150 l0 -490 -275 0 -275 0 0 -365 0 -365 275 0 275 0 0 -967 c1 -1062 2 -1091 59 -1238 36 -95 87 -173 152 -235 164 -157 396 -213 879 -212 193 0 512 21 558 37 9 3 12 91 12 395 l0 390 -243 0 c-272 0 -327 9 -377 60 -16 17 -34 47 -39 67 -7 25 -11 322 -11 871 l0 832 335 0 335 0 -2 363 -3 362 -332 3 -333 2 0 490 0 490 -495 0 -495 0 0 -490z"/>
        <path fill="rgb(255, 255, 255)" d="M34960 4730 c-412 -47 -805 -254 -1057 -556 -213 -256 -328 -516 -382 -864 -46 -295 -35 -558 36 -849 64 -265 163 -471 323 -671 127 -159 268 -271 480 -382 263 -138 643 -209 957 -180 607 57 1044 319 1290 772 35 65 93 202 103 245 4 17 17 64 28 105 11 41 25 118 31 170 7 52 14 107 16 123 l5 27 -483 0 -483 0 -18 -77 c-22 -96 -73 -258 -95 -298 -82 -150 -192 -230 -366 -266 -275 -57 -517 27 -657 229 -117 170 -171 388 -171 697 -1 222 19 370 70 525 23 70 82 197 103 223 97 120 173 177 294 219 74 25 93 28 227 28 156 0 210 -10 304 -57 64 -32 141 -113 182 -189 33 -62 83 -234 83 -285 l0 -29 491 0 492 0 -6 98 c-11 198 -104 471 -218 638 -36 55 -120 156 -160 194 -47 45 -126 115 -145 128 -204 138 -371 210 -599 258 -105 22 -149 26 -360 29 -132 2 -274 0 -315 -5z"/>
        <path fill="rgb(255, 255, 255)" d="M38775 4731 c-99 -14 -256 -60 -335 -100 -117 -59 -189 -113 -290 -215 -41 -41 -78 -76 -82 -76 -5 0 -8 72 -8 160 l0 160 -480 0 -480 0 0 -1670 0 -1670 495 0 495 0 0 748 c0 411 5 810 10 887 19 269 97 486 229 629 35 39 157 127 206 150 152 70 405 88 585 41 32 -8 63 -15 69 -15 16 0 16 956 0 966 -17 10 -345 14 -414 5z"/>
        <path fill="rgb(255, 255, 255)" d="M40730 4730 c-255 -27 -549 -139 -768 -290 -389 -269 -647 -713 -708 -1218 -47 -391 17 -835 164 -1121 159 -313 407 -555 727 -711 174 -85 340 -128 595 -155 325 -35 662 4 930 107 123 48 353 176 413 231 87 80 160 152 201 197 46 52 156 210 156 224 0 3 11 23 24 44 30 47 112 255 120 305 l7 37 -505 0 -505 0 -42 -80 c-104 -201 -264 -283 -554 -284 -205 -1 -321 30 -450 122 -147 104 -230 254 -272 490 l-10 52 1199 0 1198 0 0 58 c0 99 -29 433 -45 517 -9 44 -20 103 -24 130 -33 184 -108 406 -187 553 -132 244 -313 445 -514 574 -74 47 -230 121 -310 148 -164 55 -281 71 -530 75 -129 2 -269 0 -310 -5z m444 -796 c168 -43 288 -155 392 -364 25 -52 54 -134 54 -155 0 -13 -89 -15 -680 -15 -609 0 -680 2 -680 16 0 25 69 184 106 246 75 123 212 222 375 268 87 25 343 27 433 4z"/>
        <path fill="rgb(255, 255, 255)" d="M46667 4653 c-4 -3 -7 -755 -7 -1670 l0 -1663 495 0 495 0 -2 1668 -3 1667 -486 3 c-267 1 -489 -1 -492 -5z"/>
        <path fill="rgb(255, 255, 255)" d="M18420 4555 c-262 -29 -503 -110 -683 -229 -237 -157 -376 -371 -428 -655 -29 -157 -28 -157 29 -164 26 -4 112 -9 192 -12 178 -7 480 -24 538 -30 l42 -5 0 43 c0 158 96 301 255 376 138 66 193 76 420 76 223 -1 269 -9 380 -70 125 -69 188 -176 202 -346 l6 -77 -34 -10 c-317 -95 -577 -157 -914 -217 -401 -71 -571 -124 -800 -249 -54 -30 -167 -120 -221 -177 -111 -118 -178 -235 -230 -404 -26 -84 -28 -102 -28 -270 0 -168 2 -186 27 -270 50 -162 97 -247 210 -377 117 -135 316 -262 482 -308 17 -5 55 -16 85 -24 210 -61 581 -60 805 0 33 9 74 20 90 24 121 32 319 130 450 224 l50 36 6 -52 c4 -29 10 -87 14 -128 l6 -75 392 3 c216 1 398 5 405 7 11 4 13 230 10 1292 l-4 1288 -28 105 c-57 214 -153 346 -340 464 -174 110 -445 190 -736 215 -161 14 -502 12 -650 -4z m950 -1977 c0 -206 -3 -255 -20 -322 -34 -141 -121 -250 -268 -337 -45 -27 -87 -49 -91 -49 -5 0 -31 -9 -58 -21 -120 -52 -377 -81 -522 -60 -197 29 -318 99 -387 223 -27 49 -29 61 -29 158 0 94 3 111 28 161 80 164 250 241 657 299 85 12 187 29 225 37 100 22 426 131 443 148 18 18 22 -20 22 -237z"/>
        <path fill="rgb(255, 255, 255)" d="M25235 4555 c-247 -29 -448 -91 -646 -200 -72 -40 -209 -154 -257 -215 -24 -30 -50 -63 -58 -73 -8 -9 -14 -19 -14 -21 0 -2 -16 -32 -35 -66 -61 -107 -125 -328 -125 -430 0 -37 0 -37 48 -43 26 -4 115 -9 197 -12 161 -6 435 -22 525 -30 l55 -5 2 77 c2 65 8 88 35 142 62 122 160 195 333 247 85 25 102 27 295 28 229 1 272 -7 386 -70 127 -69 204 -208 204 -365 l0 -57 -114 -36 c-63 -20 -119 -36 -126 -36 -6 0 -44 -9 -83 -19 -100 -27 -376 -87 -627 -135 -468 -91 -634 -147 -845 -284 -62 -41 -193 -162 -235 -217 -148 -197 -210 -408 -196 -671 10 -193 68 -352 186 -508 142 -189 323 -311 570 -385 100 -29 108 -31 220 -46 208 -29 481 -14 660 35 196 55 386 143 518 242 30 22 55 38 57 36 2 -2 7 -60 12 -128 l8 -125 33 1 c17 0 199 1 402 2 l371 2 -3 1298 c-3 1198 -5 1303 -21 1372 -36 152 -83 243 -180 346 -89 96 -202 171 -342 229 -46 19 -178 61 -215 68 -14 3 -59 12 -100 22 -191 42 -649 58 -895 30z m945 -1997 l0 -263 -29 -83 c-38 -108 -84 -170 -186 -248 -220 -168 -624 -231 -895 -140 -115 39 -192 102 -237 195 -25 50 -28 67 -28 156 1 113 16 158 79 231 100 117 249 171 616 224 225 33 405 80 585 155 44 18 83 33 88 34 4 1 7 -117 7 -261z"/>
        <path fill="rgb(255, 255, 255)" d="M28895 4551 c-231 -17 -552 -121 -740 -240 -344 -218 -596 -554 -703 -936 -59 -211 -72 -311 -72 -546 0 -204 4 -245 49 -461 26 -124 106 -338 158 -420 13 -21 23 -40 23 -43 0 -5 86 -140 101 -159 5 -6 26 -31 47 -56 253 -306 563 -488 982 -577 118 -26 140 -27 380 -26 233 0 266 3 380 26 424 87 765 299 996 617 85 118 83 114 143 233 79 155 140 344 172 535 94 567 -65 1152 -416 1523 -252 266 -535 421 -925 504 -129 27 -394 39 -575 26z m435 -730 c111 -31 226 -91 310 -164 88 -75 100 -89 162 -183 133 -199 191 -407 191 -679 0 -329 -101 -595 -296 -782 -149 -143 -334 -213 -562 -213 -253 0 -461 86 -626 257 -141 146 -209 280 -265 523 -22 96 -31 353 -15 447 47 284 121 437 290 603 111 108 249 177 431 213 62 13 306 -2 380 -22z"/>
        <path fill="rgb(255, 255, 255)" d="M9492 4539 c-445 -34 -840 -225 -1137 -550 -195 -213 -332 -499 -401 -834 -24 -119 -26 -150 -26 -360 0 -208 2 -242 26 -360 50 -245 134 -463 251 -645 69 -107 106 -152 220 -265 298 -298 721 -465 1175 -465 228 1 388 29 585 102 71 27 118 48 220 101 130 68 351 253 437 365 24 31 51 66 61 77 38 41 154 247 190 337 12 28 13 39 4 46 -7 6 -160 85 -340 177 -266 135 -331 164 -343 155 -7 -7 -14 -18 -14 -25 0 -13 -94 -209 -110 -228 -5 -6 -30 -39 -54 -72 -104 -142 -258 -243 -429 -282 -96 -21 -298 -21 -394 0 -219 49 -398 189 -515 402 -68 124 -104 239 -128 405 -18 122 -8 399 18 515 82 367 307 614 624 686 78 17 113 20 218 15 129 -5 187 -17 281 -57 185 -79 330 -222 414 -409 16 -36 32 -69 35 -73 6 -7 42 7 205 83 39 18 124 57 190 87 227 103 315 147 315 158 0 22 -122 228 -182 307 -93 121 -179 206 -308 303 -235 176 -500 276 -809 305 -116 11 -127 11 -279 -1z"/>
        <path fill="rgb(255, 255, 255)" d="M21925 4539 c-265 -48 -503 -142 -708 -281 -87 -59 -367 -324 -367 -347 0 -5 -6 -16 -13 -23 -14 -14 -77 -110 -110 -168 -177 -309 -266 -736 -227 -1085 12 -102 47 -297 62 -335 5 -14 16 -47 23 -75 84 -310 301 -624 570 -824 268 -200 535 -296 890 -321 362 -26 671 43 959 214 172 102 345 256 455 406 124 167 237 384 209 402 -7 4 -92 48 -188 97 -96 49 -246 125 -333 170 l-157 81 -11 -27 c-52 -138 -170 -329 -248 -403 -80 -76 -187 -142 -289 -177 -72 -25 -90 -26 -257 -27 -174 -1 -183 0 -265 28 -47 16 -101 39 -120 50 -19 12 -47 28 -62 35 -49 25 -164 138 -215 213 -86 124 -127 224 -166 393 -19 86 -22 128 -22 305 1 176 4 218 23 298 45 188 86 282 180 407 234 313 654 401 1014 213 152 -78 316 -268 359 -413 7 -25 16 -45 20 -45 6 0 110 47 274 125 39 18 129 60 200 92 212 96 234 107 235 120 0 12 -50 111 -93 183 -130 216 -379 446 -612 563 -157 79 -228 104 -396 141 -107 24 -134 26 -340 25 -123 -1 -246 -5 -274 -10z"/>
        <path fill="rgb(255, 255, 255)" d="M16840 4524 c-103 -10 -213 -28 -280 -46 -239 -65 -428 -198 -560 -395 -30 -45 -58 -82 -62 -83 -5 0 -8 104 -8 230 l0 230 -382 -2 -383 -3 -3 -1642 -2 -1643 389 0 390 0 4 838 c4 897 6 931 58 1107 63 213 220 390 438 492 135 64 358 113 511 113 l60 0 0 405 0 405 -67 -2 c-38 0 -84 -3 -103 -4z"/>
        <path fill="rgb(255, 255, 255)" d="M11493 3248 c3 -853 8 -1232 16 -1278 44 -251 119 -411 263 -561 108 -112 229 -188 386 -243 177 -61 249 -71 512 -71 206 0 247 3 335 22 258 57 473 161 665 319 35 30 68 54 72 54 4 0 8 -72 8 -160 l0 -160 400 0 400 0 0 1645 0 1645 -399 0 -399 0 -5 -877 c-5 -995 -10 -1085 -69 -1258 -35 -100 -63 -157 -111 -220 -95 -126 -213 -205 -389 -260 -82 -25 -95 -27 -245 -23 -140 4 -167 7 -240 32 -151 51 -262 146 -329 281 -64 131 -64 122 -64 1283 l0 1042 -405 0 -406 0 4 -1212z"/>
        <path fill="rgb(255, 255, 255)" d="M30637 1569 c-94 -49 -147 -135 -147 -235 0 -74 24 -128 83 -187 90 -92 253 -96 349 -9 137 124 110 345 -53 427 -64 33 -174 34 -232 4z m206 -14 c42 -17 99 -72 124 -118 22 -39 24 -169 4 -206 -23 -42 -75 -92 -116 -114 -60 -31 -156 -30 -215 3 -93 52 -142 156 -125 262 10 58 71 139 127 166 52 25 149 29 201 7z"/>
        <path fill="rgb(255, 255, 255)" d="M30630 1335 l0 -165 35 0 35 0 0 76 0 76 28 -6 c39 -10 58 -37 66 -95 l7 -51 45 0 c41 0 44 1 34 20 -6 11 -15 43 -20 72 -6 29 -17 56 -24 60 -11 6 -8 14 15 37 37 38 38 79 3 115 -25 25 -32 26 -125 26 l-99 0 0 -165z m174 93 c19 -30 -4 -53 -58 -56 l-46 -3 0 41 0 41 46 -3 c31 -2 51 -9 58 -20z"/>
        <path fill="rgb(255, 200, 41)" d="M1375 4479 c-38 -4 -126 -13 -195 -18 -234 -19 -616 -104 -736 -163 -157 -77 -214 -140 -214 -235 0 -68 32 -127 138 -257 44 -53 79 -86 92 -86 5 0 10 -4 10 -9 0 -24 371 -306 595 -452 141 -92 216 -139 222 -139 3 0 21 -11 39 -25 18 -14 35 -25 39 -25 3 0 29 -15 58 -33 51 -33 95 -58 247 -140 41 -22 98 -53 125 -68 61 -34 516 -261 565 -282 19 -8 55 -24 80 -35 69 -30 85 -33 115 -22 65 25 74 95 23 164 -18 24 -40 54 -48 66 -8 13 -28 41 -45 64 -90 123 -321 484 -424 661 -28 50 -56 97 -62 105 -5 8 -12 22 -16 30 -4 8 -31 56 -62 105 -51 85 -269 510 -355 694 -33 69 -45 86 -72 97 -19 8 -37 13 -41 13 -4 -1 -39 -5 -78 -10z"/>
        <path fill="rgb(236, 107, 37)" d="M1611 5504 c-81 -18 -119 -47 -155 -118 -27 -54 -28 -61 -22 -147 15 -193 88 -434 231 -754 59 -133 233 -481 295 -590 12 -22 31 -56 42 -75 11 -19 29 -51 40 -70 12 -19 34 -59 51 -89 16 -29 51 -89 78 -133 27 -44 49 -81 49 -83 0 -11 280 -448 307 -480 5 -5 47 -66 93 -135 78 -117 177 -253 226 -310 12 -14 33 -38 47 -54 34 -42 89 -42 124 -1 25 28 25 31 19 149 -4 67 -13 207 -21 311 -39 508 -40 743 -9 1285 26 466 33 564 48 679 22 160 22 160 -135 237 -138 69 -277 134 -285 134 -3 0 -30 11 -60 25 -30 14 -59 25 -64 25 -6 0 -18 4 -28 9 -97 51 -396 141 -622 187 -67 13 -185 13 -249 -2z"/>
        <path fill="rgb(210, 31, 51)" d="M3508 5882 c-96 -62 -163 -199 -233 -472 -41 -160 -41 -160 -60 -285 -18 -114 -35 -252 -40 -320 -3 -44 -12 -138 -20 -210 -28 -259 -37 -551 -32 -1060 4 -328 11 -557 21 -665 8 -91 20 -221 25 -290 9 -105 22 -207 45 -370 2 -14 7 -33 11 -43 9 -21 55 -47 84 -47 25 0 78 44 87 73 26 88 421 877 544 1087 5 8 24 42 43 75 91 159 283 478 315 522 12 17 22 34 22 37 0 3 13 25 29 48 16 24 85 129 154 233 112 170 196 291 255 366 11 14 30 44 43 68 19 37 20 47 10 79 -17 54 -300 462 -370 533 -9 9 -29 32 -44 52 -86 110 -243 281 -322 351 -212 188 -333 258 -450 264 -64 3 -74 1 -117 -26z"/>
        <path fill="rgb(149, 201, 79)" d="M5780 5386 c-75 -20 -111 -40 -200 -111 -78 -62 -388 -366 -434 -425 -114 -145 -324 -430 -424 -574 -153 -221 -417 -630 -448 -696 -4 -8 -17 -31 -29 -50 -12 -19 -75 -129 -140 -245 -152 -272 -163 -292 -225 -409 -29 -55 -61 -116 -73 -135 -29 -53 -177 -348 -177 -355 0 -3 -18 -43 -39 -88 -48 -102 -146 -336 -212 -510 -119 -310 -178 -671 -133 -804 9 -26 20 -52 25 -58 5 -6 21 -26 35 -44 49 -61 86 -72 243 -72 179 0 258 18 566 128 289 104 365 137 725 317 124 61 241 121 260 132 19 11 62 35 95 53 236 130 571 347 694 450 23 19 63 53 89 75 127 106 302 305 302 341 0 3 6 20 14 37 29 70 36 89 59 184 54 216 72 407 72 778 0 322 -12 527 -46 800 -12 88 -25 192 -29 230 -9 66 -28 183 -51 305 -31 166 -126 444 -194 565 -39 70 -112 147 -163 171 -47 22 -106 26 -162 10z"/>
        <path fill="rgb(255, 255, 255)" d="M3525 6113 c-122 -30 -273 -147 -379 -296 -62 -87 -144 -279 -177 -414 -7 -29 -16 -53 -20 -53 -4 0 -40 15 -81 34 -232 107 -509 209 -788 290 -245 70 -508 70 -635 0 -103 -58 -190 -163 -242 -290 -27 -66 -28 -77 -27 -224 0 -131 4 -173 27 -274 15 -65 34 -134 42 -153 8 -19 13 -39 10 -43 -3 -4 -31 -11 -62 -14 -311 -37 -656 -112 -811 -177 -218 -93 -337 -206 -368 -352 -25 -116 -10 -246 41 -349 67 -138 257 -330 499 -506 17 -12 46 -34 64 -49 19 -15 51 -38 72 -52 378 -255 443 -295 880 -544 64 -36 534 -273 616 -310 114 -51 336 -140 419 -167 180 -59 179 -59 248 -129 56 -56 67 -74 73 -111 3 -25 17 -84 30 -132 30 -108 30 -119 0 -226 -34 -126 -66 -316 -66 -398 0 -111 53 -289 103 -351 80 -96 223 -180 359 -208 131 -28 263 -20 498 31 195 42 341 93 670 235 205 88 626 297 782 388 15 9 82 48 150 86 126 72 346 215 453 295 108 81 329 264 377 312 101 103 228 319 253 433 4 17 16 59 26 94 77 258 100 965 48 1481 -40 406 -126 857 -204 1076 -98 274 -221 448 -371 524 -63 31 -78 35 -175 38 -95 4 -112 2 -175 -23 -174 -66 -391 -192 -494 -285 -25 -22 -102 -97 -172 -167 -70 -70 -129 -125 -131 -122 -2 2 -34 47 -72 99 -84 115 -204 269 -259 330 -23 25 -66 75 -96 110 -113 134 -334 345 -422 403 -89 60 -218 127 -289 153 -40 13 -179 18 -224 7z m188 -309 c120 -50 336 -233 504 -427 48 -56 91 -104 94 -107 3 -3 36 -43 73 -90 37 -47 75 -94 84 -105 15 -18 74 -101 222 -312 27 -39 50 -74 50 -78 0 -6 -35 -56 -171 -245 -85 -119 -179 -260 -179 -270 0 -6 -3 -10 -8 -10 -4 0 -12 -9 -17 -19 -6 -11 -46 -75 -89 -143 -77 -120 -222 -353 -256 -413 -10 -16 -49 -84 -88 -151 -185 -319 -522 -982 -610 -1198 -13 -33 -17 -36 -22 -20 -13 37 -50 360 -74 654 -35 426 -28 1369 13 1765 54 511 75 629 159 895 49 157 93 238 151 277 44 30 87 29 164 -3z m-1768 -400 c163 -39 388 -108 470 -144 22 -9 92 -39 155 -65 122 -51 219 -95 338 -151 71 -34 72 -35 72 -73 0 -20 -6 -86 -14 -147 -31 -231 -59 -824 -58 -1204 1 -257 25 -807 42 -955 12 -108 12 -148 0 -140 -9 6 -161 201 -187 241 -7 11 -54 80 -106 154 -51 74 -104 153 -117 175 -13 22 -27 42 -30 45 -26 21 -337 539 -463 770 -16 30 -38 69 -47 85 -21 34 -190 373 -243 485 -32 69 -82 190 -136 330 -55 146 -96 313 -106 430 -5 67 -3 79 17 115 35 60 73 75 198 75 79 0 133 -7 215 -26z m3961 -103 c139 -63 292 -466 354 -931 5 -30 17 -120 28 -200 43 -301 57 -510 57 -850 0 -369 -15 -539 -66 -748 -53 -215 -97 -300 -227 -429 -101 -101 -244 -217 -416 -336 -73 -51 -333 -217 -340 -217 -2 0 -57 -31 -122 -68 -114 -66 -591 -307 -684 -346 -25 -11 -70 -30 -100 -44 -103 -45 -345 -133 -500 -182 -267 -83 -465 -87 -527 -10 -45 55 -63 146 -51 249 27 225 93 461 203 721 13 30 54 127 91 215 37 88 94 216 127 285 80 169 88 185 129 260 19 36 93 171 163 300 311 573 546 956 828 1350 49 69 104 145 121 169 25 34 106 142 163 216 150 193 288 335 474 487 96 79 140 104 214 121 34 8 39 7 81 -12z m-4395 -998 c158 -335 382 -751 514 -958 19 -30 35 -56 35 -59 0 -12 257 -405 366 -561 61 -88 111 -161 110 -162 -4 -5 -283 124 -437 202 -252 127 -429 222 -594 319 -66 39 -129 76 -140 82 -119 66 -587 384 -625 424 -3 3 -23 18 -45 35 -22 16 -42 32 -45 35 -3 3 -43 38 -90 77 -95 79 -148 138 -210 234 -35 54 -41 70 -37 102 7 48 35 79 112 122 139 78 411 144 735 180 136 15 276 31 292 34 5 0 31 -47 59 -106z"/>
    </g>
</svg>
