<svg xmlns="http://www.w3.org/2000/svg" xmlns:xlink="http://www.w3.org/1999/xlink" width="69" height="67" viewBox="0 0 69 67">
  <defs>
    <clipPath id="clip-path">
      <rect id="Rectangle_1783" data-name="Rectangle 1783" width="62.877" height="57.389" fill="none"/>
    </clipPath>
    <clipPath id="clip-error-fix-now-icon">
      <rect width="69" height="67"/>
    </clipPath>
  </defs>
  <g id="error-fix-now-icon" clip-path="url(#clip-error-fix-now-icon)">
    <g id="Group_4641" data-name="Group 4641" transform="translate(3 6)">
      <g id="Group_1026" data-name="Group 1026" clip-path="url(#clip-path)">
        <path id="Path_1033" data-name="Path 1033" d="M0,44.756c1.521-5.459,5.009-9.9,7.706-14.741,4.52-8.115,9.262-16.107,13.9-24.155A10.77,10.77,0,0,1,31.516,0a10.74,10.74,0,0,1,9.766,5.86c6.455,11.184,12.942,22.349,19.345,33.562a46.7,46.7,0,0,1,2.251,5.334v2.8c-.091.307-.2.609-.27.921-1.025,4.935-5.4,8.848-10.3,8.873-13.872.071-27.745.044-41.617,0A10.369,10.369,0,0,1,3.328,54.16,12.673,12.673,0,0,1,0,47.551Zm31.3,7.591c6.66,0,13.32.019,19.98-.006,5.247-.019,8.154-4.907,5.553-9.448Q46.887,25.527,36.822,8.228a6.058,6.058,0,0,0-10.8.045C19.406,19.7,12.9,31.187,6.165,42.54a6.339,6.339,0,0,0,5.714,9.866c6.464-.25,12.946-.06,19.419-.06" transform="translate(0 0)" fill="#f06824"/>
        <path id="Path_1034" data-name="Path 1034" d="M35.278,56.189c-6.474,0-12.955-.19-19.419.06a6.34,6.34,0,0,1-5.714-9.867C16.881,35.029,23.385,23.538,30,12.115a6.058,6.058,0,0,1,10.8-.045q10.064,17.3,20.011,34.665c2.6,4.541-.306,9.429-5.553,9.448-6.66.024-13.32.006-19.98.006m-3.1-31.076c.3,5.158.561,9.9.862,14.636a2.238,2.238,0,0,0,2.421,2.17A2.325,2.325,0,0,0,37.8,39.63c.2-3.3.371-6.6.552-9.9.095-1.719.273-3.439.251-5.157a3.12,3.12,0,0,0-2.834-3.108A3.225,3.225,0,0,0,32.261,24a5.112,5.112,0,0,0-.082,1.109m3.152,25.475a3.141,3.141,0,0,0,3.22-3.119,3.217,3.217,0,0,0-3.1-3.286,3.319,3.319,0,0,0-3.25,3.164,3.215,3.215,0,0,0,3.126,3.241" transform="translate(-3.979 -3.842)" fill="#fff"/>
        <path id="Path_1035" data-name="Path 1035" d="M50.119,34.961a5.083,5.083,0,0,1,.083-1.108,3.224,3.224,0,0,1,3.507-2.537,3.119,3.119,0,0,1,2.834,3.108c.021,1.718-.158,3.438-.251,5.157-.181,3.3-.354,6.6-.553,9.9A2.325,2.325,0,0,1,53.4,51.766a2.237,2.237,0,0,1-2.42-2.17c-.3-4.737-.562-9.478-.863-14.636" transform="translate(-21.92 -13.689)" fill="#f06824"/>
        <path id="Path_1036" data-name="Path 1036" d="M53.292,78.1a3.215,3.215,0,0,1-3.126-3.241,3.319,3.319,0,0,1,3.25-3.164,3.217,3.217,0,0,1,3.1,3.286,3.141,3.141,0,0,1-3.22,3.119" transform="translate(-21.941 -31.359)" fill="#f06824"/>
      </g>
    </g>
  </g>
</svg>
